<?xml version="1.0" encoding="UTF-8"?>
<svg width="116px" height="110px" viewBox="0 0 116 110" version="1.1" xmlns="http://www.w3.org/2000/svg" xmlns:xlink="http://www.w3.org/1999/xlink">
    <!-- Generator: Sketch 55 (78076) - https://sketchapp.com -->
    <title>audio</title>
    <desc>Created with Sketch.</desc>
    <g id="Web" stroke="none" stroke-width="1" fill="none" fill-rule="evenodd">
        <g id="Desktop-HD-Copy" transform="translate(-992.000000, -655.000000)" fill="#A6A6A6" fill-rule="nonzero">
            <g id="audio" transform="translate(992.000000, 655.000000)">
                <path d="M84.6222222,18.6461111 C80.75,18.4280556 77.7877778,15.1122222 78.0061111,11.24 C78.2069444,7.6725 81.0547222,4.82472222 84.6222222,4.62388889 L84.5555556,4.62388889 C85.7827778,4.62388889 86.7777778,3.62888889 86.7777778,2.40166667 C86.7777778,1.17444444 85.7827778,0.179444444 84.5555556,0.179444444 L11.4,0.179444444 C5.09305556,0.216111111 0,5.33916667 0,11.6461111 L0,102.135 C0.0122222222,106.413333 3.47722222,109.878333 7.75555556,109.890556 L79.0888889,109.890556 C83.3672222,109.878333 86.8322222,106.413333 86.8444444,102.135 L86.8444444,20.8683333 C86.8444444,19.6411111 85.8494444,18.6461111 84.6222222,18.6461111 Z M10.6102778,4.62388889 C10.8733333,4.60916667 11.1369444,4.60916667 11.4,4.62388889 L75.5555556,4.62388889 C74.4741667,5.97638889 73.7141667,7.55694444 73.3333333,9.24611111 L53,9.24611111 C51.7727778,9.24611111 50.7777778,10.2411111 50.7777778,11.4683333 C50.7777778,12.6955556 51.7727778,13.6905556 53,13.6905556 L73.3333333,13.6905556 C73.665,15.4969444 74.4272222,17.1969444 75.5555556,18.6461111 L11.4,18.6461111 C7.52777778,18.8641667 4.21222222,15.9019444 3.99388889,12.03 C3.77583333,8.15777778 6.73805556,4.84194444 10.6102778,4.62388889 Z M82.3333333,102.135 C82.3333333,103.963611 80.8508333,105.446111 79.0222222,105.446111 L79.0222222,105.446111 L7.68888889,105.446111 C5.88638889,105.409722 4.44416667,103.938056 4.44444444,102.135 L4.44444444,20.6905556 C6.45194444,22.2513889 8.92388889,23.0961111 11.4666667,23.0905556 L82.3333333,23.0905556 L82.3333333,102.135 Z" id="Shape"></path>
                <path d="M68.0266667,44.6194444 C67.6861111,44.6188889 67.3502778,44.6963889 67.0444444,44.8461111 L48.7333333,53.735 C48.3158333,53.6052778 47.8816667,53.5377778 47.4444444,53.535 L38.2444444,53.535 C32.8888889,53.535 27.1333333,56.4461111 27.1333333,64.6461111 L27.1333333,65.6905556 C27.1777778,73.7794444 32.9111111,76.6905556 38.2444444,76.6905556 L47.4666667,76.6905556 C47.9125,76.6827778 48.3544444,76.6077778 48.7777778,76.4683333 L67.0444444,85.3572222 C68.1466667,85.8972222 69.4777778,85.4416667 70.0177778,84.3394444 C70.1675,84.0336111 70.245,83.6977778 70.2444444,83.3572222 L70.2444444,46.8461111 C70.2469444,45.6188889 69.2538889,44.6219444 68.0266667,44.6194444 Z M47.5333333,72.2016667 L38.2444444,72.2016667 C35.0397222,72.6788889 32.055,70.4677778 31.5777778,67.2630556 C31.4925,66.6902778 31.4925,66.1080556 31.5777778,65.535 L31.6444444,64.5794444 C31.1672222,61.3747222 33.3783333,58.39 36.5830556,57.9127778 C37.1558333,57.8275 37.7380556,57.8275 38.3111111,57.9127778 L47.5333333,57.9127778 L47.5333333,72.2016667 Z M65.8,79.7794444 L51.9111111,73.1127778 L51.9111111,57.135 L65.8,50.4683333 L65.8,79.7794444 Z" id="Shape"></path>
                <path d="M94.6166667,45.885 C94.4216667,45.6838889 94.2233333,45.4855556 94.0222222,45.2905556 L94.0222222,45.2683333 C93.305,44.2722222 91.9163889,44.0461111 90.9202778,44.7633333 C89.9241667,45.4802778 89.6980556,46.8691667 90.4152778,47.8652778 C90.5583333,48.0641667 90.7333333,48.2377778 90.9333333,48.3797222 C100.138056,57.2575 100.403056,71.9163889 91.525,81.1213889 C91.3313889,81.3222222 91.1341667,81.5194444 90.9333333,81.7130556 C90.0497222,82.5661111 90.0247222,83.9738889 90.8777778,84.8575 C91.7308333,85.7411111 93.1386111,85.7661111 94.0222222,84.9130556 C104.963611,74.2997222 105.229722,56.8263889 94.6166667,45.885 Z" id="Path"></path>
                <path d="M105.57,40.3052778 C105.302778,40.0294444 105.031389,39.7577778 104.755556,39.4908333 C103.871944,38.6377778 102.464167,38.6627778 101.611111,39.5463889 C100.758056,40.43 100.783056,41.8377778 101.666667,42.6908333 C114.068611,54.7066667 114.381389,74.5011111 102.365556,86.9030556 C102.136389,87.1397222 101.903333,87.3727778 101.666667,87.6019444 C100.783056,88.455 100.758056,89.8627778 101.611111,90.7463889 C102.464167,91.63 103.871944,91.655 104.755556,90.8019444 C118.924722,77.0825 119.289444,54.4744444 105.57,40.3052778 Z" id="Path"></path>
            </g>
        </g>
    </g>
</svg>