<?xml version="1.0" encoding="UTF-8"?>
<svg width="20px" height="20px" viewBox="0 0 20 20" version="1.1" xmlns="http://www.w3.org/2000/svg" xmlns:xlink="http://www.w3.org/1999/xlink">
    <!-- Generator: Sketch 55 (78076) - https://sketchapp.com -->
    <title>loupe</title>
    <desc>Created with Sketch.</desc>
    <g id="Web" stroke="none" stroke-width="1" fill="#A6A6A6" fill-rule="evenodd">
        <g id="Desktop-HD-Copy" transform="translate(-1058.000000, -35.000000)" fill="#A6A6A6" fill-rule="nonzero">
            <g id="loupe" transform="translate(1058.000000, 35.000000)">
                <path d="M17.8750781,2.12191892 C15.0462891,-0.707306305 10.4436328,-0.707306305 7.61488281,2.12191892 C6.24453125,3.49242256 5.48992187,5.31468176 5.48992187,7.25289795 C5.48992187,9.01854608 6.11644531,10.6877327 7.26386719,12.007134 L6.39984375,12.8713026 L5.51929687,11.9906078 C5.4228125,11.8941072 5.29191406,11.8398794 5.15546875,11.8398794 C5.01902344,11.8398794 4.888125,11.8941072 4.79164062,11.9906078 L0.666210937,16.1167696 C0.236601562,16.546373 0,17.1176018 0,17.7252429 C0,18.332845 0.236601562,18.9041128 0.666132812,19.3337162 C1.09574219,19.7633978 1.666875,20 2.27433594,20 C2.88179687,20 3.45300781,19.7633587 3.88253906,19.3337553 L8.00800781,15.2076716 C8.10449219,15.111171 8.15871094,14.9802506 8.15871094,14.8437824 C8.15871094,14.7073141 8.10449219,14.5763937 8.00800781,14.4798931 L7.12746094,13.5991983 L7.99175781,12.7347562 C9.35085937,13.9152279 11.0477734,14.5057959 12.7449609,14.5057959 C14.6028125,14.5057959 16.4607031,13.7984896 17.8750781,12.383916 C19.2453125,11.0133733 20,9.19119227 20,7.25297609 C20,5.31464269 19.2453906,3.49242256 17.8750781,2.12191892 Z M3.15488281,18.6059377 C2.9196875,18.8411725 2.60699219,18.9707256 2.27433594,18.9707256 C1.94171875,18.9707256 1.62898437,18.8411335 1.39378906,18.6058986 C1.15863281,18.3707029 1.0290625,18.057916 1.0290625,17.725282 C1.0290625,17.392648 1.15863281,17.079822 1.39382812,16.8445872 L3.6959375,14.5420911 L5.45703125,16.3034025 L3.15488281,18.6059377 Z M6.18476562,15.575585 L4.42367188,13.8141954 L5.15546875,13.0822755 L6.9165625,14.8437042 L6.18476562,15.575585 Z M17.1473828,11.6560594 C14.7198828,14.0840454 10.7700781,14.0840454 8.34257813,11.6560594 C7.16664063,10.4799244 6.51902344,8.91622421 6.51902344,7.25289795 C6.51902344,5.58957169 7.16664063,4.02587153 8.34257813,2.84977555 C9.55632813,1.63582164 11.1506641,1.02880562 12.745,1.02880562 C14.3392969,1.02880562 15.9336719,1.6357435 17.1474219,2.84977555 C18.3233594,4.02587153 18.9709766,5.58961075 18.9709766,7.25289795 C18.9709766,8.91618514 18.3233203,10.4799244 17.1473828,11.6560594 Z" id="Shape"></path>
                <path d="M16.5627706,3.43722431 C14.5194466,1.39398184 11.1947983,1.39390036 9.15147438,3.43722431 C7.10823191,5.48054826 7.10823191,8.80519658 9.15151512,10.8485205 C10.1731771,11.870101 11.5151192,12.3809524 12.8571429,12.3809524 C14.1991665,12.3809524 15.5411494,11.870101 16.5628113,10.8485205 L16.5628113,10.8484798 C18.6060538,8.80523732 18.6060538,5.48054826 16.5627706,3.43722431 Z M15.8038671,10.0896578 C14.1790013,11.7145236 11.5352437,11.7145236 9.91037788,10.0896985 C8.28551208,8.4648327 8.28551208,5.82103435 9.91033714,4.19616855 C10.7228515,3.38361344 11.7898139,2.97753957 12.8571429,2.97753957 C13.9241867,2.97753957 14.9915564,3.38385786 15.8038671,4.19616855 C17.4287329,5.82099362 17.4287329,8.46479196 15.8038671,10.0896578 Z" id="Shape"></path>
                <path d="M14.1468209,5.66520459 C13.1730551,4.46080482 11.5888136,4.46080482 10.6150839,5.66520459 C10.4298927,5.89428325 10.4298927,6.26568994 10.6150839,6.49485767 C10.8002751,6.72393633 11.1005267,6.72393633 11.2857899,6.49485767 C11.8896053,5.74785816 12.8722994,5.74785816 13.4761869,6.49485767 C13.5688185,6.60944153 13.6901432,6.66666667 13.8115039,6.66666667 C13.9328646,6.66666667 14.0542613,6.609397 14.1468209,6.49485767 C14.3320121,6.26577901 14.3320121,5.89432778 14.1468209,5.66520459 Z" id="Path"></path>
            </g>
        </g>
    </g>
</svg>