<?xml version="1.0" encoding="UTF-8"?>
<svg width="38px" height="38px" viewBox="0 0 38 38" version="1.1" xmlns="http://www.w3.org/2000/svg" xmlns:xlink="http://www.w3.org/1999/xlink">
    <!-- Generator: Sketch 55 (78076) - https://sketchapp.com -->
    <title>play-button</title>
    <desc>Created with Sketch.</desc>
    <g id="Mobile" stroke="none" stroke-width="1" fill="none" fill-rule="evenodd">
        <g id="Home" transform="translate(-169.000000, -179.000000)">
            <g id="Group-2" transform="translate(16.000000, 121.000000)">
                <g id="play-button" transform="translate(153.000000, 58.000000)">
                    <path d="M35.4473203,9.50408203 C32.9108945,5.11092578 28.8155039,1.96828125 23.9154336,0.655351563 C19.0154375,-0.657726562 13.8974609,0.0161054688 9.50408203,2.55267969 C5.11077734,5.08917969 1.96828125,9.18457031 0.655351562,14.0846406 C-0.657578125,18.9846367 0.0162539062,24.1027617 2.55267969,28.495918 C5.08903125,32.8890742 9.18457031,36.0317188 14.0845664,37.3446484 C15.720793,37.7831328 17.3811406,38 19.0309492,38 C22.3217344,38 25.5696953,37.1369102 28.4959922,35.4473945 C32.8891484,32.9109687 36.031793,28.8155781 37.3447227,23.9155078 C38.6577266,19.0153633 37.9837461,13.8973867 35.4473203,9.50408203 Z M35.4341836,23.4036211 C34.2579648,27.7933633 31.4426992,31.4623672 27.5068789,33.7346484 C23.571207,36.0070039 18.9861211,36.6105508 14.5963789,35.4344805 C10.2065625,34.2582617 6.53763281,31.4429961 4.26527734,27.5071758 C1.99299609,23.5715039 1.389375,18.9863438 2.56566797,14.5965273 C3.74196094,10.2067852 6.55722656,6.53792969 10.4929727,4.2655 C13.11475,2.75180859 16.0240508,1.97867187 18.9723906,1.97867187 C20.4500859,1.97867187 21.9380977,2.17297656 23.4033984,2.56566797 C27.7931406,3.74188672 31.4621445,6.55715234 33.7344258,10.4929727 C36.0067812,14.4287188 36.6104766,19.0138047 35.4341836,23.4036211 Z" id="Shape" fill="#FFFFFF" fill-rule="nonzero"></path>
                    <rect id="Rectangle" fill="#DCD628" x="14" y="11" width="2" height="16" rx="1"></rect>
                    <rect id="Rectangle" fill="#DCD628" x="21.2" y="11" width="2" height="16" rx="1"></rect>
                    <path d="M30.674832,9.97796875 C28.3229141,6.93960156 24.7873555,4.89828906 20.9745898,4.37734766 C20.4340547,4.30335156 19.9348594,4.68208984 19.8608633,5.22336719 C19.7870156,5.76449609 20.1657539,6.26309766 20.7068828,6.33709375 C24.0105078,6.78841797 27.0735898,8.55690234 29.1108203,11.1886992 C29.3057188,11.4404492 29.5980664,11.5722617 29.8935313,11.5722617 C30.1049805,11.5722617 30.3180625,11.5047969 30.4981172,11.3652656 C30.9299961,11.0309844 31.0091133,10.4098477 30.674832,9.97796875 Z" id="Path" fill="#FFFFFF" fill-rule="nonzero"></path>
                </g>
            </g>
        </g>
    </g>
</svg>