<?xml version="1.0" encoding="UTF-8"?>
<svg width="38px" height="38px" viewBox="0 0 38 38" version="1.1" xmlns="http://www.w3.org/2000/svg" xmlns:xlink="http://www.w3.org/1999/xlink">
    <!-- Generator: Sketch 55 (78076) - https://sketchapp.com -->
    <title>play-button</title>
    <desc>Created with Sketch.</desc>
    <g id="Mobile" stroke="none" stroke-width="1" fill="none" fill-rule="evenodd">
        <g id="Home" transform="translate(-169.000000, -179.000000)" fill-rule="nonzero">
            <g id="Group-2" transform="translate(16.000000, 121.000000)">
                <g id="play-button" transform="translate(153.000000, 58.000000)">
                    <path d="M35.4473203,9.50408203 C32.9108945,5.11092578 28.8155039,1.96828125 23.9154336,0.655351563 C19.0154375,-0.657726562 13.8974609,0.0161054688 9.50408203,2.55267969 C5.11077734,5.08917969 1.96828125,9.18457031 0.655351562,14.0846406 C-0.657578125,18.9846367 0.0162539062,24.1027617 2.55267969,28.495918 C5.08903125,32.8890742 9.18457031,36.0317188 14.0845664,37.3446484 C15.720793,37.7831328 17.3811406,38 19.0309492,38 C22.3217344,38 25.5696953,37.1369102 28.4959922,35.4473945 C32.8891484,32.9109687 36.031793,28.8155781 37.3447227,23.9155078 C38.6577266,19.0153633 37.9837461,13.8973867 35.4473203,9.50408203 Z M35.4341836,23.4036211 C34.2579648,27.7933633 31.4426992,31.4623672 27.5068789,33.7346484 C23.571207,36.0070039 18.9861211,36.6105508 14.5963789,35.4344805 C10.2065625,34.2582617 6.53763281,31.4429961 4.26527734,27.5071758 C1.99299609,23.5715039 1.389375,18.9863438 2.56566797,14.5965273 C3.74196094,10.2067852 6.55722656,6.53792969 10.4929727,4.2655 C13.11475,2.75180859 16.0240508,1.97867187 18.9723906,1.97867187 C20.4500859,1.97867187 21.9380977,2.17297656 23.4033984,2.56566797 C27.7931406,3.74188672 31.4621445,6.55715234 33.7344258,10.4929727 C36.0067812,14.4287188 36.6104766,19.0138047 35.4341836,23.4036211 Z" id="Shape" fill="#FFFFFF"></path>
                    <path d="M28.1124297,17.2077656 L15.9015156,10.1577266 C15.2535117,9.78358984 14.4798555,9.78373828 13.8318516,10.1576523 C13.1838477,10.5317148 12.7969453,11.2018359 12.7969453,11.9500352 L12.7969453,26.0501133 C12.7969453,26.7983125 13.1837734,27.4683594 13.8318516,27.8424961 C14.1558164,28.0296016 14.5111016,28.123043 14.8665352,28.123043 C15.222043,28.123043 15.5774766,28.0293789 15.9014414,27.8424219 L28.1125039,20.792457 C28.7604336,20.4182461 29.1471875,19.7481992 29.1471875,19 C29.1471875,18.251875 28.7603594,17.5818281 28.1124297,17.2077656 Z M27.1233906,19.0797109 L14.9124023,26.1296758 C14.8974844,26.1383594 14.8663867,26.1562461 14.820668,26.1296758 C14.7748008,26.1031797 14.7748008,26.0674062 14.7748008,26.0501875 L14.7748008,11.9501094 C14.7748008,11.9328906 14.7748008,11.8971172 14.820668,11.8706211 C14.8386289,11.8602305 14.8542891,11.856668 14.8676484,11.856668 C14.8884297,11.856668 14.9034219,11.8653516 14.9125508,11.8706211 L27.1234648,18.9206602 C27.1383828,18.9292695 27.169332,18.9471562 27.169332,19.0001484 C27.169332,19.0531406 27.1382344,19.0711016 27.1233906,19.0797109 Z" id="Shape" fill="#DCD628"></path>
                    <path d="M30.674832,9.97796875 C28.3229141,6.93960156 24.7873555,4.89828906 20.9745898,4.37734766 C20.4340547,4.30335156 19.9348594,4.68208984 19.8608633,5.22336719 C19.7870156,5.76449609 20.1657539,6.26309766 20.7068828,6.33709375 C24.0105078,6.78841797 27.0735898,8.55690234 29.1108203,11.1886992 C29.3057188,11.4404492 29.5980664,11.5722617 29.8935313,11.5722617 C30.1049805,11.5722617 30.3180625,11.5047969 30.4981172,11.3652656 C30.9299961,11.0309844 31.0091133,10.4098477 30.674832,9.97796875 Z" id="Path" fill="#FFFFFF"></path>
                </g>
            </g>
        </g>
    </g>
</svg>