<?xml version="1.0" encoding="UTF-8"?>
<svg width="111px" height="89px" viewBox="0 0 111 89" version="1.1" xmlns="http://www.w3.org/2000/svg" xmlns:xlink="http://www.w3.org/1999/xlink">
    <!-- Generator: Sketch 55 (78076) - https://sketchapp.com -->
    <title>share-video</title>
    <desc>Created with Sketch.</desc>
    <g id="Web" stroke="none" stroke-width="1" fill="none" fill-rule="evenodd">
        <g id="Desktop-HD-Copy" transform="translate(-261.000000, -307.000000)" fill="#A6A6A6" fill-rule="nonzero">
            <g id="share-video" transform="translate(261.000000, 307.000000)">
                <path d="M41.2769393,48.2122897 C40.9119416,48.2122897 40.5460969,48.1214018 40.2158203,47.9387921 C39.5315552,47.5602315 39.107277,46.8464695 39.107277,46.0726714 L39.107277,22.4985127 C39.107277,21.7238807 39.5315552,21.0109526 40.2158203,20.6323918 C40.9000854,20.253831 41.7384797,20.2688401 42.408348,20.6732496 L61.96241,32.460329 C62.6068726,32.8488958 63.0006637,33.5401442 63.0006637,34.2855921 C63.0006637,35.0302059 62.6068726,35.7222881 61.96241,36.1100209 L42.408348,47.8979342 C42.0619812,48.1072267 41.6690369,48.2122897 41.2769393,48.2122897 L41.2769393,48.2122897 Z M43.4466019,26.3133037 L43.4466019,42.2578802 L56.6712113,34.2855921 L43.4466019,26.3133037 Z" id="Shape"></path>
                <path d="M106.659828,45.943427 L102.107094,45.943427 L102.107094,6.41635372 C102.107094,2.87756165 99.187111,0 95.5989534,0 L6.50814051,0 C2.91998291,0 0,2.87756165 0,6.41635372 L0,62.1539964 C0,65.6927885 2.91998291,68.5720177 6.50814051,68.5720177 L67.5542449,68.5720177 L67.5542449,84.5199294 C67.5542449,86.8788462 69.5003357,88.8 71.8918762,88.8 L106.659828,88.8 C109.053062,88.8 111,86.8788462 111,84.5199294 L111,50.2234976 C111,47.8620793 109.053062,45.943427 106.659828,45.943427 Z M6.50814051,64.2944487 C5.31406408,64.2944487 4.34017176,63.3338717 4.34017176,62.1539964 L4.34017176,6.41635372 C4.34017176,5.23814593 5.31406408,4.277569 6.50814051,4.277569 L95.5989534,4.277569 C96.7955704,4.277569 97.7686157,5.23814593 97.7686157,6.41635372 L97.7686157,45.943427 L71.8918762,45.943427 C69.5003357,45.943427 67.5542449,47.8620793 67.5542449,50.2234976 L67.5542449,64.2944487 L6.50814051,64.2944487 Z M106.659828,84.5199294 L71.8918762,84.5199294 L71.8918762,50.2234976 L106.659828,50.2234976 L106.659828,84.5199294 Z" id="Shape"></path>
                <path d="M30.5226287,59.7850737 L10.9685669,59.7850737 C9.77025599,59.7850737 8.79890453,58.8278321 8.79890453,57.6462892 C8.79890453,56.464746 9.77025599,55.5066707 10.9685669,55.5066707 L30.5226287,55.5066707 C31.7209396,55.5066707 32.6922913,56.464746 32.6922913,57.6462892 C32.6922913,58.8278321 31.7209396,59.7850737 30.5226287,59.7850737 L30.5226287,59.7850737 Z" id="Path"></path>
                <path d="M38.130844,59.7850737 C36.9325333,59.7850737 35.9603348,58.8278321 35.9603348,57.6462892 C35.9603348,56.464746 36.9308395,55.5066707 38.1283036,55.5066707 L38.130844,55.5066707 C39.3291549,55.5066707 40.3005066,56.464746 40.3005066,57.6462892 C40.3005066,58.8278321 39.3291549,59.7850737 38.130844,59.7850737 L38.130844,59.7850737 Z" id="Path"></path>
                <path d="M97.983719,69.5350962 C96.43396,69.5350962 94.9163818,70.0920974 93.7426301,71.0868614 C93.415741,71.3645281 93.5478516,71.330341 93.2395935,71.225278 C92.9804534,71.1368915 92.7247009,70.9717924 92.4791106,70.8508863 C90.9132614,70.0804238 89.3474121,69.3091271 87.7815629,68.5386643 C87.6104965,68.4544471 87.2700577,68.3627253 87.1396408,68.2226411 C86.9236907,67.9908353 87.0871354,67.5272236 87.0752792,67.1761794 C87.0634232,66.8184646 86.9482499,66.7033954 87.1701278,66.5066106 C87.3555908,66.3415113 87.7019576,66.243119 87.9246826,66.1330529 C89.4812165,65.3634239 91.0385971,64.5929612 92.5959778,63.8224984 C92.7916031,63.7257737 93.0244905,63.5573393 93.2370529,63.5056415 C93.2836304,63.4939679 93.3496858,63.4230921 93.3988037,63.4255934 C93.5410767,63.4322641 93.8569564,63.7966497 93.989067,63.8958758 C95.1848373,64.7955829 96.6787033,65.2600285 98.1818848,65.202494 C100.779213,65.1032677 103.120789,63.4255934 104.027779,61.0283204 C104.958481,58.5676758 104.230179,55.7268029 102.238358,53.986591 C100.245689,52.2455453 97.2875977,51.8803261 94.9248504,53.0977239 C93.7934417,53.67974 92.847496,54.5911209 92.2301331,55.690948 C91.9421997,56.2020882 91.7270964,56.752419 91.5907516,57.3210937 C91.5153809,57.6396185 91.4645691,57.9648137 91.4383163,58.2908429 C91.4256135,58.4567757 91.4188386,58.6243766 91.4188386,58.7911434 C91.4188386,58.9337291 91.5399398,59.4898963 91.4730378,59.5916242 C91.316368,59.8275993 90.5753631,60.0360577 90.3280793,60.1577974 C89.5362626,60.5496995 88.7444458,60.9416017 87.9517822,61.3335036 C87.2200928,61.6953877 86.4884033,62.0572716 85.7558671,62.4191555 C85.5958098,62.4983698 85.3400574,62.6951547 85.1605225,62.7143329 C84.9022294,62.7418494 84.4474641,62.2198693 84.2035676,62.0572716 C81.8204956,60.4671499 78.5710831,60.6472581 76.3777084,62.4716871 C74.3435441,64.1635368 73.5449524,66.9843975 74.4129867,69.4658879 C75.2666244,71.909022 77.6073532,73.6550706 80.2300872,73.789318 C81.7637557,73.8676983 83.2982711,73.4007512 84.5169067,72.4785305 C84.7624968,72.2925857 84.9276351,72.0224234 85.1986312,72.0499399 C85.4137345,72.0707857 85.7236862,72.3075946 85.9150773,72.4026518 C87.4572144,73.1614408 88.9985046,73.9193959 90.5406417,74.6790189 C90.7870789,74.7999248 91.0724716,74.9016526 91.3011246,75.0525766 C91.5822831,75.2385216 91.5179215,75.1067757 91.4874344,75.5545448 C91.4002075,76.870335 91.7431869,78.202802 92.4469299,79.3234751 C93.8434066,81.5439753 96.5389709,82.7355244 99.1515426,82.2669095 C101.726005,81.8049655 103.821991,79.7845853 104.354668,77.2630709 C104.89666,74.7006987 103.76017,72.0107496 101.537155,70.5773887 C100.485352,69.8994816 99.2413102,69.5350962 97.983719,69.5350962 L97.983719,69.5350962 Z M96.8912659,56.9091796 C97.803337,56.5497972 98.7755355,56.5673077 99.4987565,57.3169246 C100.204193,58.0465296 100.289726,59.1963867 99.7028503,60.0177132 C98.9381332,61.0875225 97.3358688,61.2301082 96.3941574,60.3020508 C95.3838501,59.305619 95.6387557,57.5870869 96.8912659,56.9091796 C96.9124374,56.9000076 96.2163163,57.2735653 96.8912659,56.9091796 L96.8912659,56.9091796 Z M80.5705261,69.5184195 C77.7775725,69.5184195 77.7513199,65.2500225 80.5705261,65.2400165 C81.7197189,65.2366811 82.6953048,66.1680738 82.7376481,67.2954176 C82.7816849,68.490302 81.7883147,69.5184195 80.5705261,69.5184195 L80.5705261,69.5184195 Z M100.153381,75.9606219 C100.153381,78.1702825 97.0005111,78.8848783 96.0257722,76.8695012 C95.3821565,75.5403695 96.3221741,73.934405 97.8143464,73.8193358 C99.0575408,73.7234451 100.16185,74.7323843 100.153381,75.9606219 Z" id="Shape"></path>
            </g>
        </g>
    </g>
</svg>