<?xml version="1.0" encoding="UTF-8"?>
<svg width="24px" height="24px" viewBox="0 0 24 24" version="1.1" xmlns="http://www.w3.org/2000/svg" xmlns:xlink="http://www.w3.org/1999/xlink">
    <!-- Generator: Sketch 58 (84663) - https://sketch.com -->
    <title>TELGERAM</title>
    <desc>Created with Sketch.</desc>
    <g id="TELGERAM" stroke="none" stroke-width="1" fill="none" fill-rule="evenodd">
        <g id="telegram" transform="translate(1.000000, 2.000000)" fill="#000" fill-rule="nonzero">
            <path d="M0.379677263,9.22616368 L5.75974808,11.8722315 C5.96783738,11.973551 6.21351109,11.9663139 6.41243345,11.8514248 L11.2012373,9.10403747 L8.30265428,11.6388347 C8.15506672,11.7681981 8.07073097,11.9527443 8.07073097,12.1472416 L8.07073097,18.3213999 C8.07073097,18.9727396 8.91317177,19.2468451 9.30826643,18.7293919 L11.6339164,15.678046 L17.3852479,18.9103196 C17.7885927,19.1391931 18.3056076,18.9094149 18.3991102,18.4543817 L21.9861297,0.813929606 C22.0933828,0.283811404 21.5589508,-0.148605833 21.0621032,0.0486053755 L0.436512225,7.98680884 C-0.117170307,8.20030354 -0.152921331,8.96472313 0.379677263,9.22616368 Z M20.391084,1.76380011 L17.238577,17.2665913 L11.7888375,14.2034851 C11.491829,14.036127 11.109568,14.1103073 10.8987287,14.3853174 L9.44577037,16.2913909 L9.44577037,12.4521048 L17.2844116,5.59856301 C17.9050127,5.0566845 17.1918256,4.09324443 16.483222,4.50395034 L6.04208951,10.494467 L2.38265132,8.69514084 L20.391084,1.76380011 Z" id="Shape"></path>
        </g>
    </g>
</svg>