<?xml version="1.0" encoding="UTF-8"?>
<svg width="97px" height="107px" viewBox="0 0 97 107" version="1.1" xmlns="http://www.w3.org/2000/svg" xmlns:xlink="http://www.w3.org/1999/xlink">
    <!-- Generator: Sketch 55 (78076) - https://sketchapp.com -->
    <title>video-camera</title>
    <desc>Created with Sketch.</desc>
    <g id="Web" stroke="none" stroke-width="1" fill="none" fill-rule="evenodd">
        <g id="Desktop-HD-Copy" transform="translate(-997.000000, -296.000000)" fill-rule="nonzero">
            <g id="video-camera" transform="translate(997.000000, 296.000000)">
                <path d="M95.3815589,39.2849746 C94.6592216,38.8541784 93.7635151,38.833913 93.0229835,39.2321174 L77.5680197,47.5423885 L77.5680197,40.4208809 C77.5680197,39.1021683 76.4976891,38.0331169 75.1780747,38.0331169 L71.2911726,38.0331169 C76.1386118,34.1056014 79.2431562,28.1108075 79.2431562,21.404218 C79.2433653,9.60203275 69.6317209,0 57.8173035,0 C47.7334421,0 39.2554949,6.99615471 36.9883096,16.3844608 C34.0224188,12.8093958 29.5459774,10.5279729 24.5456637,10.5279729 C15.6366982,10.5279729 8.38906665,17.7685658 8.38906665,26.6684133 C8.38906665,31.0973405 10.1846624,35.1142744 13.0859318,38.0337436 L10.9036535,38.0337436 C9.58362089,38.0337436 8.51349938,39.102795 8.51349938,40.4215076 L8.51349938,51.2601468 L2.46272246,51.2601468 C1.14268984,51.2601468 0.0725683334,52.3291982 0.0725683334,53.6479108 L0.0725683334,63.0376793 C0.0725683334,64.3563919 1.14268984,65.4254433 2.46272246,65.4254433 L8.51329025,65.4254433 L8.51329025,76.2640824 C8.51329025,77.582795 9.58341176,78.6518464 10.9034444,78.6518464 L39.0994834,78.6518464 L26.1446766,103.476945 C25.5344334,104.64607 25.9886651,106.088255 27.1591693,106.697888 C27.5121819,106.881739 27.8898718,106.968859 28.2619152,106.968859 C29.1241609,106.968859 29.9569191,106.501084 30.3831273,105.684619 L43.0403413,81.429249 L55.6977644,105.684619 C56.1239726,106.501502 56.95694,106.968859 57.8191856,106.968859 C58.1912291,106.968859 58.5691281,106.881739 58.9219315,106.697888 C60.0924357,106.088255 60.5466675,104.64607 59.9362152,103.476945 L46.9814083,78.6518464 L75.1778656,78.6518464 C76.4976891,78.6518464 77.5680197,77.582795 77.5680197,76.2640824 L77.5680197,69.1423659 L93.0229835,77.4526369 C93.3772508,77.6429644 93.7664429,77.7378148 94.155635,77.7378148 C94.5801702,77.7378148 95.0044963,77.6247883 95.3815589,77.3999887 C96.1038961,76.9689836 96.5457892,76.1905421 96.5457892,75.3502597 L96.5457892,41.3347036 C96.5457892,40.4942123 96.1038961,39.7159797 95.3815589,39.2849746 Z M8.51349938,60.6492885 L4.85287659,60.6492885 L4.85287659,56.0348391 L8.51349938,56.0348391 L8.51349938,60.6492885 Z M57.8173035,4.77531903 C66.9956292,4.77531903 74.4630571,12.2350706 74.4630571,21.4044269 C74.4630571,30.5737832 66.9958383,38.0333258 57.8173035,38.0333258 C48.6389778,38.0333258 41.171759,30.5735743 41.171759,21.4044269 C41.1719681,12.2352795 48.6391869,4.77531903 57.8173035,4.77531903 Z M39.5658448,32.6030378 C40.8423782,34.6721965 42.4616768,36.5084077 44.3438526,38.0333258 L36.0053956,38.0333258 C37.5339314,36.4952456 38.7519083,34.6506776 39.5658448,32.6030378 Z M24.5456637,15.303083 C30.8185373,15.303083 35.9221616,20.4013947 35.9221616,26.6682044 C35.9221616,32.9350141 30.8187465,38.0335347 24.5456637,38.0335347 C18.27279,38.0335347 13.1691658,32.935223 13.1691658,26.6682044 C13.1693749,20.4013947 18.27279,15.303083 24.5456637,15.303083 Z M72.7879206,51.539057 L72.7879206,65.1446527 L72.7879206,73.8754828 L43.0836313,73.8754828 C43.0792396,73.8754828 43.075057,73.8754828 43.0706652,73.8754828 L43.0075078,73.8754828 C43.0047891,73.8754828 43.0020704,73.8754828 42.9993517,73.8754828 L13.2935985,73.8754828 L13.2935985,63.0368436 L13.2935985,53.6470751 L13.2935985,42.8084359 L72.7879206,42.8084359 L72.7879206,51.539057 Z M91.76569,71.3527555 L77.5680197,63.7183456 L77.5680197,52.9655731 L91.76569,45.3311632 L91.76569,71.3527555 Z" id="Shape" fill="#DCD628"></path>
                <path d="M24.5456637,19.4152851 C20.5422758,19.4152851 17.2854842,22.6690288 17.2854842,26.6682044 C17.2854842,30.6675889 20.5424849,33.9211237 24.5456637,33.9211237 C28.5490516,33.9211237 31.8058431,30.66738 31.8058431,26.6682044 C31.8060522,22.6690288 28.5490516,19.4152851 24.5456637,19.4152851 Z M24.5456637,29.6231903 C22.9144447,29.6231903 21.5875107,28.2975833 21.5875107,26.6679955 C21.5875107,25.0384077 22.9144447,23.7128007 24.5456637,23.7128007 C26.1768827,23.7128007 27.5038166,25.0384077 27.5038166,26.6679955 C27.5038166,28.2975833 26.1766736,29.6231903 24.5456637,29.6231903 Z" id="Shape" fill="#FFFFFF"></path>
                <path d="M57.8173035,10.988227 C52.0680929,10.988227 47.3908861,15.6609656 47.3908861,21.4044269 C47.3908861,27.1476793 52.0680929,31.8204178 57.8173035,31.8204178 C63.566514,31.8204178 68.2437209,27.1476793 68.2437209,21.4044269 C68.2437209,15.6609656 63.5667231,10.988227 57.8173035,10.988227 Z M57.8173035,27.0450988 C54.7039756,27.0450988 52.1709852,24.5146414 52.1709852,21.4044269 C52.1709852,18.2942123 54.7039756,15.763546 57.8173035,15.763546 C60.9306314,15.763546 63.4636217,18.2940034 63.4636217,21.4044269 C63.4636217,24.5148504 60.9306314,27.0450988 57.8173035,27.0450988 Z" id="Shape" fill="#FFFFFF"></path>
                <path d="M50.1062384,49.7519424 L24.1196646,49.7519424 C22.8655081,49.7519424 21.8491332,50.7675099 21.8491332,52.0202033 L21.8491332,64.6639243 C21.8491332,65.9168267 22.8657172,66.9321852 24.1196646,66.9321852 L50.1062384,66.9321852 C51.3603948,66.9321852 52.3767698,65.9166177 52.3767698,64.6639243 L52.3767698,52.0202033 C52.3767698,50.7677188 51.3601857,49.7519424 50.1062384,49.7519424 Z M47.835707,62.3956635 L26.390196,62.3956635 L26.390196,54.2886731 L47.835707,54.2886731 L47.835707,62.3956635 L47.835707,62.3956635 Z" id="Shape" fill="#FFFFFF"></path>
                <ellipse id="Oval" fill="#FFFFFF" cx="62.6421566" cy="54.4077583" rx="2.39015413" ry="2.38776398"></ellipse>
                <ellipse id="Oval" fill="#FFFFFF" cx="62.6421566" cy="62.2751158" rx="2.39015413" ry="2.38776398"></ellipse>
            </g>
        </g>
    </g>
</svg>