<?xml version="1.0" encoding="UTF-8"?>
<svg width="123px" height="78px" viewBox="0 0 123 78" version="1.1" xmlns="http://www.w3.org/2000/svg" xmlns:xlink="http://www.w3.org/1999/xlink">
    <!-- Generator: Sketch 55 (78076) - https://sketchapp.com -->
    <title>voice-recorder</title>
    <desc>Created with Sketch.</desc>
    <g id="Web" stroke="none" stroke-width="1" fill="none" fill-rule="evenodd">
        <g id="Desktop-HD-Copy" transform="translate(-624.000000, -672.000000)" fill-rule="nonzero">
            <g id="voice-recorder" transform="translate(685.000000, 710.500000) rotate(-90.000000) translate(-685.000000, -710.500000) translate(646.000000, 649.000000)">
                <path d="M54.7878788,13.1666667 L13.8787879,13.1666667 C12.7491145,13.1666667 11.8333333,14.0752653 11.8333333,15.1960784 L11.8333333,80.1372549 C11.8333333,81.2580681 12.7491145,82.1666667 13.8787879,82.1666667 L54.7878788,82.1666667 C55.9175521,82.1666667 56.8333333,81.2580681 56.8333333,80.1372549 L56.8333333,15.1960784 C56.8333333,14.0752653 55.9175521,13.1666667 54.7878788,13.1666667 Z M52.7424242,78.1078431 L15.9242424,78.1078431 L15.9242424,17.2254902 L52.7424242,17.2254902 L52.7424242,78.1078431 Z" id="Shape" fill="#DCD628"></path>
                <path d="M34.3333333,74.6666667 C39.8534396,74.6599273 44.3267211,70.1006212 44.3333333,64.474359 L44.3333333,31.8589744 C44.3333333,26.2299183 39.8561808,21.6666667 34.3333333,21.6666667 C28.8104858,21.6666667 24.3333333,26.2299183 24.3333333,31.8589744 L24.3333333,42.0512821 C24.3333333,43.1770933 25.2287638,44.0897436 26.3333333,44.0897436 C27.4379028,44.0897436 28.3333333,43.1770933 28.3333333,42.0512821 L28.3333333,39.9598205 C31.8657273,42.7476908 36.8009394,42.7476908 40.3333333,39.9598205 L40.3333333,56.3735128 C36.8009394,53.5856425 31.8657273,53.5856425 28.3333333,56.3735128 L28.3333333,50.2051282 C28.3333333,49.079317 27.4379028,48.1666667 26.3333333,48.1666667 C25.2287638,48.1666667 24.3333333,49.079317 24.3333333,50.2051282 L24.3333333,64.474359 C24.3399456,70.1006212 28.813227,74.6599273 34.3333333,74.6666667 Z M34.3333333,37.974359 C31.0196248,37.974359 28.3333333,35.236408 28.3333333,31.8589744 C28.3333333,28.4815407 31.0196248,25.7435897 34.3333333,25.7435897 C37.6470418,25.7435897 40.3333333,28.4815407 40.3333333,31.8589744 C40.3333333,35.236408 37.6470418,37.974359 34.3333333,37.974359 Z M34.3333333,58.3589744 C37.6470418,58.3589744 40.3333333,61.0969253 40.3333333,64.474359 C40.3333333,67.8517926 37.6470418,70.5897436 34.3333333,70.5897436 C31.0196248,70.5897436 28.3333333,67.8517926 28.3333333,64.474359 C28.3333333,61.0969253 31.0196248,58.3589744 34.3333333,58.3589744 Z" id="Shape" fill="#444444"></path>
                <path d="M71.254386,16.9333333 L69.2280702,16.9333333 L69.2280702,10.8333333 C69.2213709,5.22122526 64.6892305,0.673389103 59.0964912,0.666666667 L10.4649123,0.666666667 C4.872173,0.673389103 0.340032569,5.22122526 0.333333333,10.8333333 L0.333333333,112.5 C0.340032569,118.112108 4.872173,122.659944 10.4649123,122.666667 L59.0964912,122.666667 C64.6892305,122.659944 69.2213709,118.112108 69.2280702,112.5 L69.2280702,53.5333333 L71.254386,53.5333333 C74.6116959,53.5333333 77.3333333,50.8022703 77.3333333,47.4333333 L77.3333333,23.0333333 C77.3333333,19.6643964 74.6116959,16.9333333 71.254386,16.9333333 L71.254386,16.9333333 Z M16.5438596,118.6 L16.5438596,96.2333333 C16.5438596,92.8643964 19.2654971,90.1333333 22.622807,90.1333333 L46.9385965,90.1333333 C50.2959064,90.1333333 53.0175439,92.8643964 53.0175439,96.2333333 L53.0175439,118.6 L16.5438596,118.6 Z M65.1754386,112.5 C65.1754386,115.868937 62.4538012,118.6 59.0964912,118.6 L57.0701754,118.6 L57.0701754,96.2333333 C57.0634762,90.6212253 52.5313358,86.0733891 46.9385965,86.0666667 L22.622807,86.0666667 C17.0300677,86.0733891 12.4979273,90.6212253 12.4912281,96.2333333 L12.4912281,118.6 L10.4649123,118.6 C7.10760235,118.6 4.38596491,115.868937 4.38596491,112.5 L4.38596491,10.8333333 C4.38596491,7.46439636 7.10760235,4.73333333 10.4649123,4.73333333 L59.0964912,4.73333333 C62.4538012,4.73333333 65.1754386,7.46439636 65.1754386,10.8333333 L65.1754386,112.5 Z M73.2807018,47.4333333 C73.2807018,48.5563123 72.3734893,49.4666667 71.254386,49.4666667 L69.2280702,49.4666667 L69.2280702,45.4 L73.2807018,45.4 L73.2807018,47.4333333 Z M73.2807018,41.3333333 L69.2280702,41.3333333 L69.2280702,37.2666667 L73.2807018,37.2666667 L73.2807018,41.3333333 Z M73.2807018,33.2 L69.2280702,33.2 L69.2280702,29.1333333 L73.2807018,29.1333333 L73.2807018,33.2 Z M73.2807018,25.0666667 L69.2280702,25.0666667 L69.2280702,21 L71.254386,21 C72.3734893,21 73.2807018,21.9103543 73.2807018,23.0333333 L73.2807018,25.0666667 Z" id="Shape" fill="#444444"></path>
                <circle id="Oval" fill="#DCD628" cx="21.8333333" cy="96.1666667" r="2"></circle>
                <circle id="Oval" fill="#DCD628" cx="21.8333333" cy="105.166667" r="2"></circle>
                <circle id="Oval" fill="#DCD628" cx="21.8333333" cy="113.166667" r="2"></circle>
                <circle id="Oval" fill="#DCD628" cx="30.8333333" cy="96.1666667" r="2"></circle>
                <circle id="Oval" fill="#DCD628" cx="30.8333333" cy="105.166667" r="2"></circle>
                <circle id="Oval" fill="#DCD628" cx="30.8333333" cy="113.166667" r="2"></circle>
                <circle id="Oval" fill="#DCD628" cx="38.8333333" cy="96.1666667" r="2"></circle>
                <circle id="Oval" fill="#DCD628" cx="38.8333333" cy="105.166667" r="2"></circle>
                <circle id="Oval" fill="#DCD628" cx="38.8333333" cy="113.166667" r="2"></circle>
                <circle id="Oval" fill="#DCD628" cx="46.8333333" cy="96.1666667" r="2"></circle>
                <circle id="Oval" fill="#DCD628" cx="46.8333333" cy="105.166667" r="2"></circle>
                <circle id="Oval" fill="#DCD628" cx="46.8333333" cy="113.166667" r="2"></circle>
            </g>
        </g>
    </g>
</svg>