<?xml version="1.0" encoding="UTF-8"?>
<svg width="110px" height="110px" viewBox="0 0 110 110" version="1.1" xmlns="http://www.w3.org/2000/svg" xmlns:xlink="http://www.w3.org/1999/xlink">
    <!-- Generator: Sketch 55 (78076) - https://sketchapp.com -->
    <title>writing</title>
    <desc>Created with Sketch.</desc>
    <g id="Web" stroke="none" stroke-width="1" fill="none" fill-rule="evenodd">
        <g id="Desktop-HD-Copy" transform="translate(-638.000000, -299.000000)" fill-rule="nonzero">
            <g id="writing" transform="translate(638.000000, 299.000000)">
                <path d="M6.03166667,6.03166667 C5.86593912,6.20694632 5.73525892,6.41230092 5.64666667,6.63666667 C5.45099768,7.08050243 5.45099768,7.58616424 5.64666667,8.03 C5.73081001,8.25660478 5.86202658,8.46280224 6.03166667,8.635 C6.75461619,9.34402395 7.91205047,9.34402395 8.635,8.635 C9.34402395,7.91205047 9.34402395,6.75461619 8.635,6.03166667 C7.89979703,5.35329958 6.76686963,5.35329958 6.03166667,6.03166667 L6.03166667,6.03166667 Z" id="Path" fill="#DCD628"></path>
                <path d="M12.1366667,5.64666667 C11.9100619,5.73081001 11.7038644,5.86202658 11.5316667,6.03166667 C10.8226427,6.75461619 10.8226427,7.91205047 11.5316667,8.635 C12.0561658,9.16384324 12.8484891,9.32279674 13.5363828,9.03718008 C14.2242764,8.75156341 14.6709981,8.07815263 14.6666667,7.33333333 C14.6595526,6.84800076 14.4697026,6.38319547 14.135,6.03166667 C13.6038309,5.51907008 12.8202604,5.36810694 12.1366667,5.64666667 Z" id="Path" fill="#DCD628"></path>
                <path d="M17.6366667,5.64666667 C17.4123009,5.73525892 17.2069463,5.86593912 17.0316667,6.03166667 C16.3226427,6.75461619 16.3226427,7.91205047 17.0316667,8.635 C17.2099779,8.79679655 17.414578,8.92699657 17.6366667,9.02 C17.8570742,9.11394179 18.0937584,9.16377002 18.3333333,9.16666667 C18.8210648,9.17161864 19.290263,8.98005501 19.635159,8.63515902 C19.980055,8.29026302 20.1716186,7.82106479 20.1666667,7.33333333 C20.1595526,6.84800076 19.9697026,6.38319547 19.635,6.03166667 C19.0994302,5.52760949 18.3211734,5.3776701 17.6366667,5.64666667 Z" id="Path" fill="#DCD628"></path>
                <rect id="Rectangle" fill="#DCD628" x="23.8333333" y="31.1666667" width="25.6666667" height="3.66666667"></rect>
                <rect id="Rectangle" fill="#DCD628" x="23.8333333" y="42.1666667" width="25.6666667" height="3.66666667"></rect>
                <rect id="Rectangle" fill="#DCD628" x="23.8333333" y="53.1666667" width="34.8333333" height="3.66666667"></rect>
                <rect id="Rectangle" fill="#DCD628" x="23.8333333" y="64.1666667" width="23.8333333" height="3.66666667"></rect>
                <rect id="Rectangle" fill="#DCD628" x="23.8333333" y="75.1666667" width="14.6666667" height="3.66666667"></rect>
                <rect id="Rectangle" fill="#DCD628" x="23.8333333" y="86.1666667" width="11" height="3.66666667"></rect>
                <path d="M102.980167,22 C101.117413,21.9946065 99.3300821,22.7354212 98.0173333,24.057 L91.6666667,30.4076667 L91.6666667,5.5 C91.6666667,2.46243388 89.2042328,0 86.1666667,0 L5.5,0 C2.46243388,0 8.14163551e-16,2.46243388 0,5.5 L0,104.5 C8.14163551e-16,107.537566 2.46243388,110 5.5,110 L86.1666667,110 C89.2042328,110 91.6666667,107.537566 91.6666667,104.5 L91.6666667,50.259 L107.943,33.9826667 C109.951748,31.9756926 110.553153,28.9560207 109.466609,26.3325811 C108.380065,23.7091415 105.819711,21.998968 102.980167,22 L102.980167,22 Z M3.66666667,5.5 C3.66666667,4.48747796 4.48747796,3.66666667 5.5,3.66666667 L86.1666667,3.66666667 C87.1791887,3.66666667 88,4.48747796 88,5.5 L88,11 L3.66666667,11 L3.66666667,5.5 Z M88,104.5 C88,105.512522 87.1791887,106.333333 86.1666667,106.333333 L5.5,106.333333 C4.48747796,106.333333 3.66666667,105.512522 3.66666667,104.5 L3.66666667,14.6666667 L88,14.6666667 L88,34.0743333 L77,45.0743333 L77,39.5743333 L57.5923333,20.1666667 L14.6666667,20.1666667 L14.6666667,100.833333 L77,100.833333 L77,64.9256667 L88,53.9256667 L88,104.5 Z M44.231,77.8433333 L39.2681667,92.7318333 L54.1566667,87.769 L59.4256667,82.5 L73.3333333,68.5923333 L73.3333333,97.1666667 L18.3333333,97.1666667 L18.3333333,23.8333333 L55,23.8333333 L55,42.1666667 L73.3333333,42.1666667 L73.3333333,48.741 L49.5,72.5743333 L44.231,77.8433333 Z M49.5,77.759 L54.241,82.5 L52.1766667,84.5643333 L45.0651667,86.9348333 L47.4356667,79.8233333 L49.5,77.759 Z M58.6666667,26.4256667 L70.741,38.5 L58.6666667,38.5 L58.6666667,26.4256667 Z M56.8333333,79.9076667 L52.0923333,75.1666667 L95.3333333,31.9256667 L100.074333,36.6666667 L56.8333333,79.9076667 Z M105.350667,31.3903333 L102.666667,34.0743333 L97.9256667,29.3333333 L100.609667,26.6493333 C101.45025,25.7718433 102.699784,25.4177798 103.875742,25.7238702 C105.0517,26.0299606 105.970039,26.9483005 106.27613,28.1242584 C106.58222,29.3002164 106.228157,30.5497505 105.350667,31.3903333 L105.350667,31.3903333 Z" id="Shape" fill="#444444"></path>
            </g>
        </g>
    </g>
</svg>